<?xml version="1.0" encoding="UTF-8"?>
<svg version="1.1" xmlns="http://www.w3.org/2000/svg" width="1536" height="1024">
<path d="M0 0 C506.88 0 1013.76 0 1536 0 C1536 337.92 1536 675.84 1536 1024 C1029.12 1024 522.24 1024 0 1024 C0 686.08 0 348.16 0 0 Z " fill="#0D0B20" transform="translate(0,0)"/>
<path d="M0 0 C25.0896613 -0.11175077 50.17923617 -0.18433886 75.26911247 -0.22381961 C81.65361163 -0.23450643 88.03806551 -0.25247932 94.42253876 -0.27333641 C102.3014723 -0.29881372 110.18033506 -0.31291448 118.05931115 -0.31327879 C122.13429319 -0.31370349 126.20912003 -0.31883347 130.28406525 -0.3369236 C134.06565849 -0.35349613 137.84699472 -0.35556542 141.6286118 -0.34691691 C143.63570726 -0.34583666 145.64279465 -0.35941064 147.6498394 -0.37371826 C177.55547241 -0.23814004 204.57908865 12.17501683 225.86083221 32.76066017 C231.88922783 38.85354106 236.48097138 45.523099 240.61083221 53.01066017 C241.19308563 54.06035988 241.19308563 54.06035988 241.78710175 55.13126564 C253.97983001 77.63063632 255.36048404 100.13528597 255.15073347 125.19172955 C255.12271021 129.16541911 255.12317028 133.13912112 255.12001801 137.11289406 C255.11088991 143.76596585 255.0835978 150.41874431 255.04296112 157.07169533 C254.98585088 166.42958719 254.9637393 175.78733384 254.94767642 185.14537287 C254.93519725 191.6731608 254.91456076 198.20092722 254.89229631 204.72868824 C254.88695362 206.29962376 254.88181553 207.87055999 254.87688398 209.44149685 C254.86250723 213.91232122 254.8429468 218.38306499 254.8154068 222.85382843 C254.80413009 224.83885529 254.79737333 226.82390625 254.79079437 228.80895424 C254.66274171 246.70566395 254.66274171 246.70566395 252.22801971 254.08878517 C251.95159637 254.93263771 251.67517303 255.77649025 251.39037323 256.64591408 C251.09187469 257.50878029 250.79337616 258.3716465 250.48583221 259.26066017 C250.17379852 260.17379982 249.86176483 261.08693947 249.54027557 262.02775002 C240.25197987 288.50510613 222.81895143 309.24821034 197.76366425 321.98526955 C194.24386191 323.66174605 190.65526919 325.0730092 186.98583221 326.38566017 C186.35475555 326.61205177 185.72367889 326.83844337 185.0734787 327.07169533 C173.12251828 331.07691459 161.47619304 332.44652104 148.91991425 332.33194923 C147.4037568 332.32949853 145.88759648 332.32847848 144.37143707 332.32876015 C141.13746603 332.32694933 137.9036901 332.31640056 134.66976547 332.29908943 C129.55003669 332.27294238 124.43053171 332.2742729 119.31075287 332.28037453 C104.76321544 332.29390282 90.21588676 332.27617327 75.6684494 332.22013283 C67.61027504 332.18932743 59.55247233 332.18359229 51.49426353 332.20501876 C46.40965927 332.21710176 41.32641625 332.19838999 36.24198461 332.15653372 C33.07838736 332.13786856 29.91538534 332.14853885 26.75181007 332.1673851 C25.2909292 332.17027735 23.82996642 332.16128762 22.36924934 332.13922119 C12.89551208 331.92024219 12.89551208 331.92024219 4.88326263 336.37607765 C3.76775593 337.56490499 2.67480741 338.77549927 1.61083221 340.01066017 C0.53173968 341.02108433 -0.5575699 342.02086271 -1.66260529 343.00284767 C-2.69730233 343.96287754 -3.73114721 344.92382661 -4.76416779 345.88566017 C-8.59272054 349.4360537 -12.43497045 352.96679006 -16.32666779 356.44816017 C-21.05661133 360.684276 -25.69946743 365.01003491 -30.34229279 369.34098244 C-34.0539996 372.79521508 -37.82585987 376.16097224 -41.66651154 379.47159767 C-44.0870869 381.63419788 -46.33811032 383.9496062 -48.61182404 386.26456642 C-50.45510352 388.0754366 -52.36739578 389.76387371 -54.32666779 391.44816017 C-57.20311219 393.92324024 -59.91343084 396.49487455 -62.57666779 399.19816017 C-69.21019167 405.89646456 -73.97758158 409.27918181 -83.63916779 409.44816017 C-91.42697795 409.43396783 -96.54669584 407.66184022 -102.19385529 402.29581642 C-106.79299651 397.26756872 -108.62115644 392.81155812 -108.70801544 385.93522072 C-108.72788513 384.73435326 -108.74775482 383.53348579 -108.76822662 382.29622841 C-108.77977783 381.00960808 -108.79132904 379.72298775 -108.80323029 378.39737892 C-108.82195377 377.05929828 -108.84152806 375.72122931 -108.86191559 374.38317299 C-108.91311848 370.87339101 -108.95280715 367.36357079 -108.9900589 363.85361671 C-109.03017317 360.26719739 -109.08123152 356.68093547 -109.13135529 353.09464455 C-109.22797406 346.06676518 -109.31242346 339.03878695 -109.38916779 332.01066017 C-110.45280548 331.82745216 -111.51644318 331.64424416 -112.61231232 331.45548439 C-126.59718549 328.9841399 -126.59718549 328.9841399 -133.26416779 326.13566017 C-133.87872833 325.87446388 -134.49328888 325.61326759 -135.12647247 325.34415627 C-136.88913739 324.58562864 -138.6396166 323.79896369 -140.38916779 323.01066017 C-141.30440216 322.60847267 -142.21963654 322.20628517 -143.16260529 321.79191017 C-167.04681407 310.64092311 -184.68734762 289.06308933 -194.38916779 265.01066017 C-199.12847864 251.89960612 -200.68934605 239.31632343 -200.67969513 225.42399025 C-200.6856957 224.00154206 -200.69250469 222.5790971 -200.70005035 221.15665627 C-200.71756321 217.32781735 -200.72239948 213.49906807 -200.72368193 209.67019296 C-200.72511261 207.26789712 -200.72939939 204.86562342 -200.73467636 202.46333313 C-200.75312872 194.05355723 -200.7613531 185.64384432 -200.75977325 177.23404884 C-200.7585735 169.44168601 -200.77965551 161.64960087 -200.81126058 153.85730821 C-200.83756375 147.12818079 -200.8481347 140.39914329 -200.84686244 133.66996497 C-200.84635686 129.66823979 -200.85181238 125.6667618 -200.87321854 121.66508865 C-201.02834724 90.4857905 -196.68558494 62.49951936 -175.38916779 38.01066017 C-174.65826935 37.1469883 -173.92737091 36.28331642 -173.17432404 35.39347267 C-169.15221492 30.72404401 -169.15221492 30.72404401 -167.38916779 29.01066017 C-166.72916779 29.01066017 -166.06916779 29.01066017 -165.38916779 29.01066017 C-165.38916779 28.35066017 -165.38916779 27.69066017 -165.38916779 27.01066017 C-142.5020425 6.99725466 -115.08894904 0.80282488 -85.49073029 0.59659767 C-83.68843683 0.57747153 -81.8861501 0.55770282 -80.08386993 0.53736305 C-75.11160916 0.48444705 -70.13932569 0.44486239 -65.16691589 0.40896034 C-61.99535227 0.38552112 -58.82382458 0.35917992 -55.65229034 0.3320713 C-37.10174405 0.1757695 -18.55098631 0.08277221 0 0 Z " fill="#0D0A1F" transform="translate(720.3891677856445,320.9893398284912)"/>
<path d="M0 0 C25.0896613 -0.11175077 50.17923617 -0.18433886 75.26911247 -0.22381961 C81.65361163 -0.23450643 88.03806551 -0.25247932 94.42253876 -0.27333641 C102.3014723 -0.29881372 110.18033506 -0.31291448 118.05931115 -0.31327879 C122.13429319 -0.31370349 126.20912003 -0.31883347 130.28406525 -0.3369236 C134.06565849 -0.35349613 137.84699472 -0.35556542 141.6286118 -0.34691691 C143.63570726 -0.34583666 145.64279465 -0.35941064 147.6498394 -0.37371826 C177.55547241 -0.23814004 204.57908865 12.17501683 225.86083221 32.76066017 C231.88922783 38.85354106 236.48097138 45.523099 240.61083221 53.01066017 C241.19308563 54.06035988 241.19308563 54.06035988 241.78710175 55.13126564 C253.97983001 77.63063632 255.36048404 100.13528597 255.15073347 125.19172955 C255.12271021 129.16541911 255.12317028 133.13912112 255.12001801 137.11289406 C255.11088991 143.76596585 255.0835978 150.41874431 255.04296112 157.07169533 C254.98585088 166.42958719 254.9637393 175.78733384 254.94767642 185.14537287 C254.93519725 191.6731608 254.91456076 198.20092722 254.89229631 204.72868824 C254.88695362 206.29962376 254.88181553 207.87055999 254.87688398 209.44149685 C254.86250723 213.91232122 254.8429468 218.38306499 254.8154068 222.85382843 C254.80413009 224.83885529 254.79737333 226.82390625 254.79079437 228.80895424 C254.66274171 246.70566395 254.66274171 246.70566395 252.22801971 254.08878517 C251.95159637 254.93263771 251.67517303 255.77649025 251.39037323 256.64591408 C251.09187469 257.50878029 250.79337616 258.3716465 250.48583221 259.26066017 C250.17379852 260.17379982 249.86176483 261.08693947 249.54027557 262.02775002 C240.25197987 288.50510613 222.81895143 309.24821034 197.76366425 321.98526955 C194.24386191 323.66174605 190.65526919 325.0730092 186.98583221 326.38566017 C186.35475555 326.61205177 185.72367889 326.83844337 185.0734787 327.07169533 C173.12251828 331.07691459 161.47619304 332.44652104 148.91991425 332.33194923 C147.4037568 332.32949853 145.88759648 332.32847848 144.37143707 332.32876015 C141.13746603 332.32694933 137.9036901 332.31640056 134.66976547 332.29908943 C129.55003669 332.27294238 124.43053171 332.2742729 119.31075287 332.28037453 C104.76321544 332.29390282 90.21588676 332.27617327 75.6684494 332.22013283 C67.61027504 332.18932743 59.55247233 332.18359229 51.49426353 332.20501876 C46.40965927 332.21710176 41.32641625 332.19838999 36.24198461 332.15653372 C33.07838736 332.13786856 29.91538534 332.14853885 26.75181007 332.1673851 C25.2909292 332.17027735 23.82996642 332.16128762 22.36924934 332.13922119 C12.89551208 331.92024219 12.89551208 331.92024219 4.88326263 336.37607765 C3.76775593 337.56490499 2.67480741 338.77549927 1.61083221 340.01066017 C0.53173968 341.02108433 -0.5575699 342.02086271 -1.66260529 343.00284767 C-2.69730233 343.96287754 -3.73114721 344.92382661 -4.76416779 345.88566017 C-8.59272054 349.4360537 -12.43497045 352.96679006 -16.32666779 356.44816017 C-21.05661133 360.684276 -25.69946743 365.01003491 -30.34229279 369.34098244 C-34.0539996 372.79521508 -37.82585987 376.16097224 -41.66651154 379.47159767 C-44.0870869 381.63419788 -46.33811032 383.9496062 -48.61182404 386.26456642 C-50.45510352 388.0754366 -52.36739578 389.76387371 -54.32666779 391.44816017 C-57.20311219 393.92324024 -59.91343084 396.49487455 -62.57666779 399.19816017 C-69.21019167 405.89646456 -73.97758158 409.27918181 -83.63916779 409.44816017 C-91.42697795 409.43396783 -96.54669584 407.66184022 -102.19385529 402.29581642 C-106.79299651 397.26756872 -108.62115644 392.81155812 -108.70801544 385.93522072 C-108.72788513 384.73435326 -108.74775482 383.53348579 -108.76822662 382.29622841 C-108.77977783 381.00960808 -108.79132904 379.72298775 -108.80323029 378.39737892 C-108.82195377 377.05929828 -108.84152806 375.72122931 -108.86191559 374.38317299 C-108.91311848 370.87339101 -108.95280715 367.36357079 -108.9900589 363.85361671 C-109.03017317 360.26719739 -109.08123152 356.68093547 -109.13135529 353.09464455 C-109.22797406 346.06676518 -109.31242346 339.03878695 -109.38916779 332.01066017 C-110.45280548 331.82745216 -111.51644318 331.64424416 -112.61231232 331.45548439 C-126.59718549 328.9841399 -126.59718549 328.9841399 -133.26416779 326.13566017 C-133.87872833 325.87446388 -134.49328888 325.61326759 -135.12647247 325.34415627 C-136.88913739 324.58562864 -138.6396166 323.79896369 -140.38916779 323.01066017 C-141.30440216 322.60847267 -142.21963654 322.20628517 -143.16260529 321.79191017 C-167.04681407 310.64092311 -184.68734762 289.06308933 -194.38916779 265.01066017 C-199.12847864 251.89960612 -200.68934605 239.31632343 -200.67969513 225.42399025 C-200.6856957 224.00154206 -200.69250469 222.5790971 -200.70005035 221.15665627 C-200.71756321 217.32781735 -200.72239948 213.49906807 -200.72368193 209.67019296 C-200.72511261 207.26789712 -200.72939939 204.86562342 -200.73467636 202.46333313 C-200.75312872 194.05355723 -200.7613531 185.64384432 -200.75977325 177.23404884 C-200.7585735 169.44168601 -200.77965551 161.64960087 -200.81126058 153.85730821 C-200.83756375 147.12818079 -200.8481347 140.39914329 -200.84686244 133.66996497 C-200.84635686 129.66823979 -200.85181238 125.6667618 -200.87321854 121.66508865 C-201.02834724 90.4857905 -196.68558494 62.49951936 -175.38916779 38.01066017 C-174.65826935 37.1469883 -173.92737091 36.28331642 -173.17432404 35.39347267 C-169.15221492 30.72404401 -169.15221492 30.72404401 -167.38916779 29.01066017 C-166.72916779 29.01066017 -166.06916779 29.01066017 -165.38916779 29.01066017 C-165.38916779 28.35066017 -165.38916779 27.69066017 -165.38916779 27.01066017 C-142.5020425 6.99725466 -115.08894904 0.80282488 -85.49073029 0.59659767 C-83.68843683 0.57747153 -81.8861501 0.55770282 -80.08386993 0.53736305 C-75.11160916 0.48444705 -70.13932569 0.44486239 -65.16691589 0.40896034 C-61.99535227 0.38552112 -58.82382458 0.35917992 -55.65229034 0.3320713 C-37.10174405 0.1757695 -18.55098631 0.08277221 0 0 Z M-160.22119904 48.96378517 C-172.71117443 63.31478608 -181.45871527 80.89685608 -181.53633881 100.2431736 C-181.54349411 101.47359383 -181.55064941 102.70401405 -181.55802155 103.97171974 C-181.56086134 105.3224275 -181.56357313 106.67313552 -181.56616974 108.02384377 C-181.57244161 109.45687967 -181.57908904 110.88991398 -181.58608246 112.32294655 C-181.60705071 117.0183189 -181.61748256 121.71369129 -181.62744904 126.40909767 C-181.63150021 128.03268004 -181.63561723 129.65626225 -181.63979912 131.27984428 C-181.65884007 138.91513803 -181.67306972 146.55042221 -181.68141109 154.18573511 C-181.69115993 162.96180785 -181.71742221 171.73762679 -181.75791198 180.51361024 C-181.78822167 187.3198718 -181.80289419 194.12606125 -181.8061921 200.9323889 C-181.80852695 204.98616555 -181.81727979 209.0396708 -181.84265327 213.09337425 C-181.86619882 216.91680776 -181.870063 220.73979628 -181.85989189 224.56328392 C-181.85917247 226.60700019 -181.87807856 228.65069523 -181.89795685 230.69431496 C-181.76980163 253.92340041 -172.48115239 274.57109494 -156.37354279 291.18644142 C-140.62203504 306.60848536 -120.85537215 312.87783955 -99.26416779 313.47159767 C-95.69358105 314.14108269 -93.99342377 315.52731607 -91.38916779 318.01066017 C-89.98073266 320.82753042 -90.24884363 323.18998942 -90.23145294 326.34049416 C-90.22637222 326.98945656 -90.2212915 327.63841896 -90.21605682 328.30704689 C-90.20535011 329.7175346 -90.1967311 331.12803934 -90.18993759 332.53855133 C-90.17815956 334.77015411 -90.15871054 337.0015624 -90.13681793 339.23308754 C-90.07515934 345.57823168 -90.0211193 351.92335558 -89.9878006 358.26871681 C-89.96687787 362.14856738 -89.93159581 366.02806301 -89.887043 369.90771103 C-89.87286471 371.38725614 -89.86415643 372.86686404 -89.86098862 374.34647369 C-89.85609021 376.41517199 -89.83296302 378.48292487 -89.80567169 380.55143166 C-89.79758484 381.72898521 -89.78949799 382.90653877 -89.78116608 384.11977577 C-89.61659001 386.99421939 -89.61659001 386.99421939 -88.06235504 388.9026432 C-86.2793583 390.28484594 -86.2793583 390.28484594 -83.20166779 390.19816017 C-78.68350223 388.7908627 -76.78154497 386.86460051 -73.67432404 383.40909767 C-71.10188735 380.70913848 -68.34715705 378.32199037 -65.5280838 375.88468361 C-62.04184008 372.83019134 -58.68939672 369.63727532 -55.32666779 366.44816017 C-53.83738484 365.04029026 -52.34779526 363.63274466 -50.85791779 362.22550392 C-50.11412872 361.52280373 -49.37033966 360.82010353 -48.60401154 360.09610939 C-45.19333746 356.88469207 -41.75887804 353.6990189 -38.32666779 350.51066017 C-33.83342696 346.33330498 -29.43379319 342.09249089 -25.12744904 337.72159767 C-22.73498284 335.36676577 -20.20992156 333.18769997 -17.66260529 331.00284767 C-15.88945836 329.44905913 -14.1529508 327.87477627 -12.42823029 326.26847267 C-11.90583771 325.78289894 -11.38344513 325.29732521 -10.84522247 324.79703712 C-9.81926563 323.84062862 -8.79628862 322.88100975 -7.7768631 321.91764259 C-6.34293991 320.58384432 -4.86614731 319.29661702 -3.38916779 318.01066017 C-2.60079025 317.30708885 -1.81241272 316.60351753 -1.00014496 315.87862587 C3.87110647 312.71808482 9.72856192 313.49843104 15.31615448 313.57242775 C16.59693375 313.57344994 17.87771301 313.57447212 19.19730377 313.57552528 C22.70728992 313.57864524 26.21670903 313.60629697 29.72653699 313.63801599 C33.43116727 313.66692888 37.13582875 313.67205346 40.84055328 313.67952919 C47.88558344 313.6971329 54.93036153 313.73422622 61.97526544 313.77912587 C74.49600042 313.85818623 87.01689622 313.90133328 99.53780597 313.94206733 C103.90968074 313.95700375 108.28143405 313.97931666 112.65323943 314.00797075 C126.6237154 314.0974243 140.58284751 314.0586998 154.54808807 313.64225197 C155.72816468 313.61176419 156.90824129 313.58127642 158.1240778 313.54986477 C179.39019817 312.80722729 197.74803079 303.73686547 212.81786346 288.82706642 C229.68546576 270.7339022 235.73734316 248.50685462 235.78783417 224.34293556 C235.79410842 222.95901256 235.80075605 221.57509121 235.80774689 220.19117165 C235.82868384 215.66356493 235.83914288 211.1359583 235.84911346 206.60831642 C235.85316557 205.0413804 235.85728262 203.47444454 235.86146355 201.90750885 C235.88049629 194.53918664 235.8947286 187.17087429 235.90307552 179.80253226 C235.91282634 171.33775819 235.93909731 162.87324712 235.97957641 154.40856558 C236.00989367 147.84007377 236.02455926 141.27165666 236.02785653 134.70309633 C236.03019017 130.79241213 236.03892704 126.88200943 236.0643177 122.97140121 C236.23621782 95.68468808 236.23621782 95.68468808 227.61083221 70.01066017 C227.24216034 69.20370705 226.87348846 68.39675392 226.49364471 67.56534767 C223.58981452 61.35912235 220.01690849 56.23883453 215.61083221 51.01066017 C215.0268869 50.2810508 214.44294159 49.55144142 213.84130096 48.79972267 C200.39197595 32.66053266 180.5642668 22.08279512 159.61083221 20.01066017 C156.00792476 19.86654234 152.40827894 19.86709785 148.80283356 19.87021828 C147.72458913 19.86724715 146.6463447 19.86427603 145.5354262 19.86121488 C141.92765975 19.85255349 138.31992659 19.85102178 134.71215057 19.84952736 C132.12302836 19.84489734 129.53390682 19.83987243 126.94478607 19.83448219 C119.9134948 19.82093019 112.88220925 19.8148789 105.85090709 19.81047153 C101.45513651 19.80770351 97.05936811 19.80346512 92.66359901 19.79896736 C80.47778556 19.78677823 68.29197385 19.77647858 56.10615444 19.77309227 C55.32700518 19.7728727 54.54785591 19.77265314 53.74509606 19.77242692 C52.57367393 19.7720995 52.57367393 19.7720995 51.37858671 19.77176547 C49.79625253 19.77132201 48.21391835 19.77087545 46.63158417 19.7704258 C45.84670211 19.77020437 45.06182005 19.76998294 44.25315369 19.7697548 C31.54660581 19.76581013 18.84011538 19.74836462 6.13358968 19.72506627 C-6.93190519 19.7013044 -19.99737128 19.6888882 -33.06288809 19.68772435 C-40.39061868 19.68681025 -47.7182744 19.681125 -55.04598427 19.66290474 C-61.9431429 19.64581473 -68.84015772 19.64428715 -75.73733139 19.65304375 C-78.26156304 19.6538121 -80.78580242 19.64949818 -83.31001472 19.63958549 C-113.57048006 19.52776964 -138.98384361 26.25995047 -160.22119904 48.96378517 Z " fill="#311A57" transform="translate(720.3891677856445,320.9893398284912)"/>
<path d="M0 0 C8.95409494 7.52556335 15.76507248 16.69807258 20.75 27.25 C21.20117188 28.17167969 21.65234375 29.09335938 22.1171875 30.04296875 C26.86663709 40.45522361 29.82217039 52.75708582 28.75 64.25 C28.64558594 65.37792969 28.54117188 66.50585938 28.43359375 67.66796875 C26.08968945 88.38301487 17.86532026 107.10028329 1.7265625 120.8203125 C-1.20980241 123.06141721 -4.18873995 125.18364947 -7.25 127.25 C-7.971875 127.75273437 -8.69375 128.25546875 -9.4375 128.7734375 C-26.12597125 139.87665426 -47.22550497 141.53281702 -66.5625 138.125 C-87.11430366 133.97548329 -105.06152942 121.34520587 -116.65625 103.953125 C-127.69086964 85.23754464 -131.99818962 63.24861011 -126.75 41.875 C-123.09468689 29.31307887 -117.12654301 17.9097674 -108.25 8.25 C-107.61320312 7.54488281 -106.97640625 6.83976562 -106.3203125 6.11328125 C-77.76644451 -23.98868802 -32.05147116 -23.93906464 0 0 Z " fill="#191237" transform="translate(215.25,81.75)"/>
<path d="M0 0 C6.6 0 13.2 0 20 0 C17.75962091 6.72113728 17.75962091 6.72113728 16.30078125 9.63671875 C6.31815826 29.97075597 0.00399105 50.96259354 -5 73 C-5.24443848 74.06557129 -5.48887695 75.13114258 -5.74072266 76.22900391 C-18.18375006 133.50038394 -6.03945109 194.07942805 19 246 C19.38027344 246.78938965 19.76054688 247.5787793 20.15234375 248.39208984 C28.77874913 266.04383236 39.83256669 282.43133749 53 297 C54.06541016 298.22783203 54.06541016 298.22783203 55.15234375 299.48046875 C65.17865524 310.92577404 75.97173122 321.67263955 88 331 C89.11195566 331.88902816 90.22256287 332.77974474 91.33203125 333.671875 C130.59199526 365.11260835 176.35356868 385.68274003 226 393.8125 C226.66708984 393.92424561 227.33417969 394.03599121 228.02148438 394.15112305 C241.393786 396.15536873 255.09007053 396.18666852 268.58398438 396.18530273 C270.99887499 396.18749898 273.41331374 396.20578949 275.828125 396.22460938 C286.36368436 396.26298152 296.57391239 395.49641717 307 394 C308.0223877 393.85393311 309.04477539 393.70786621 310.09814453 393.55737305 C349.3530332 387.60744453 385.57266116 374.50503643 419 353 C420.1034375 352.30519531 421.206875 351.61039062 422.34375 350.89453125 C426.94179776 347.99603072 431.48246204 345.02257236 436 342 C437.25597665 349.23829002 438.3536416 356.90438725 436 364 C431.48457559 369.37639523 424.73719889 372.08700303 418.44335938 374.88476562 C415.46074913 376.24613289 412.75701705 377.91854687 410 379.6875 C397.71517114 386.79156182 384.42510932 392.12194232 370.9921875 396.61328125 C367.99726241 397.61964252 365.09097345 398.77215106 362.171875 399.98046875 C356.99884013 402.06967367 351.77376792 403.61012455 346.375 405 C345.38790039 405.25491211 344.40080078 405.50982422 343.38378906 405.77246094 C336.21956304 407.56521298 329.03218787 409.02622246 321.75 410.25 C320.85458496 410.40082031 319.95916992 410.55164063 319.03662109 410.70703125 C316.02893327 411.18302961 313.01913052 411.60253818 310 412 C309.33705933 412.0875354 308.67411865 412.1750708 307.99108887 412.26525879 C294.89273661 413.9460827 281.94535863 414.32758873 268.75 414.25 C267.26216003 414.24385178 267.26216003 414.24385178 265.7442627 414.23757935 C216.22807971 413.99788203 170.53871536 402.9639511 127 379 C126.08347656 378.52175781 125.16695312 378.04351562 124.22265625 377.55078125 C103.12080547 366.4762761 83.32791491 351.90693311 65.92578125 335.703125 C63.38483984 333.35555296 60.79830071 331.08125551 58.1875 328.8125 C46.57701975 318.3593345 36.28132728 306.54251515 27 294 C26.52498047 293.36545898 26.04996094 292.73091797 25.56054688 292.07714844 C8.18873172 268.74306997 -5.26846913 242.74388943 -14 215 C-14.33805664 213.9284668 -14.67611328 212.85693359 -15.02441406 211.75292969 C-22.89140763 186.56856498 -22.89140763 186.56856498 -24.69238281 174.03125 C-25.02524913 171.83327557 -25.43066597 169.65448408 -25.8359375 167.46875 C-30.75029604 138.73267047 -29.87265409 106.68853617 -25 78 C-24.81727539 76.91041992 -24.63455078 75.82083984 -24.44628906 74.69824219 C-19.93571148 48.96054577 -11.97018416 23.26281073 0 0 Z " fill="#241645" transform="translate(1100,0)"/>
<path d="M0 0 C1.52717651 0.45620728 1.52717651 0.45620728 3.08520508 0.92163086 C6.10273213 1.83031933 9.11483786 2.75473077 12.125 3.6875 C12.9907666 3.95498047 13.8565332 4.22246094 14.74853516 4.49804688 C24.56747673 7.56366279 33.90022854 11.09145093 43.125 15.6875 C43.79901855 16.02104492 44.47303711 16.35458984 45.16748047 16.69824219 C49.83100874 19.00642139 54.48043016 21.34143742 59.125 23.6875 C60.445 24.3475 61.765 25.0075 63.125 25.6875 C63.125 32.2875 63.125 38.8875 63.125 45.6875 C57.90328784 43.15343381 52.87065301 40.55696119 47.9375 37.5 C31.84109438 28.04001258 14.01778126 21.77306234 -3.875 16.6875 C-4.69500488 16.45192383 -5.51500977 16.21634766 -6.35986328 15.97363281 C-29.93778751 9.31845871 -54.16707552 6.4599041 -78.625 6.5625 C-79.68314407 6.56582336 -79.68314407 6.56582336 -80.76266479 6.56921387 C-136.29459519 6.77348803 -195.20463579 21.35888034 -237.875 58.6875 C-239.56732378 60.12426296 -241.26528496 61.55419445 -242.96337891 62.98413086 C-244.589782 64.35512741 -246.2115808 65.73135213 -247.83203125 67.109375 C-249.85653945 68.82461943 -251.8956926 70.52273003 -253.94921875 72.203125 C-278.42735605 92.98829899 -298.29231561 121.93492017 -315.78515625 148.5625 C-328.34408407 167.34220516 -341.71474808 185.6638199 -356.4296875 202.8125 C-358.0254459 204.68866324 -359.57553746 206.60492984 -361.0703125 208.5625 C-361.66585938 209.26375 -362.26140625 209.965 -362.875 210.6875 C-363.535 210.6875 -364.195 210.6875 -364.875 210.6875 C-365.11992188 211.25855469 -365.36484375 211.82960938 -365.6171875 212.41796875 C-369.62832777 219.65546097 -377.56564237 225.42452188 -383.875 230.6875 C-384.3611377 231.09806641 -384.84727539 231.50863281 -385.34814453 231.93164062 C-412.7814326 254.98648687 -443.7633037 271.69445809 -478.32763672 281.00097656 C-482.18319568 282.04006337 -486.02846749 283.11558587 -489.875 284.1875 C-491.33982599 284.59381405 -492.80466994 285.00006331 -494.26953125 285.40625 C-526.48714862 293.99383534 -526.48714862 293.99383534 -556.5625 308.0625 C-557.20195557 308.44108154 -557.84141113 308.81966309 -558.50024414 309.2097168 C-561.41637656 310.98922418 -563.90150139 312.71200972 -566.421875 315.04296875 C-573.87044246 321.9195057 -581.23899975 321.36095568 -590.90014648 321.09594727 C-593.56096066 320.98717644 -596.21723716 320.85383009 -598.875 320.6875 C-588.5930416 310.21190774 -577.62623234 301.15937576 -564.88134766 293.84179688 C-563.57434499 293.08984888 -562.27407065 292.3260434 -560.98193359 291.54882812 C-542.48980243 280.44296325 -521.38099718 274.38576276 -500.42871094 269.87426758 C-483.46890551 266.17292925 -466.77630787 260.65395027 -450.875 253.6875 C-450.18905762 253.39891113 -449.50311523 253.11032227 -448.79638672 252.81298828 C-413.13120306 237.7150692 -380.76760397 209.7731623 -357.875 178.6875 C-356.8028567 177.25853401 -355.72989699 175.8301803 -354.65625 174.40234375 C-346.07048933 162.92202514 -337.89365519 151.1668608 -329.73974609 139.37792969 C-305.437701 104.31527756 -279.65939261 70.22890772 -245.875 43.6875 C-244.98941406 42.98367188 -244.10382813 42.27984375 -243.19140625 41.5546875 C-211.99737336 17.41284235 -175.55984343 2.01775762 -136.875 -5.3125 C-136.18583496 -5.46428711 -135.49666992 -5.61607422 -134.78662109 -5.77246094 C-91.82486067 -15.02576318 -42.07641011 -12.77544957 0 0 Z " fill="#1F133E" transform="translate(1472.875,703.3125)"/>
<path d="M0 0 C7.14757628 5.60862445 11.30701982 13.63843941 13.9375 22.1875 C15.013039 33.21177472 13.12843829 41.82593649 6.1875 50.75 C-0.27358332 58.26865194 -8.06260281 63.00254799 -18.12109375 63.97265625 C-29.38836505 64.37694212 -38.53754645 60.5165087 -46.7890625 52.93359375 C-54.26784853 45.05699996 -56.49752504 36.78773966 -56.42163086 26.15087891 C-55.96113115 16.14416472 -51.33396696 8.16912983 -44.02734375 1.4375 C-30.75290629 -8.67635711 -13.99772576 -9.05554627 0 0 Z " fill="#161033" transform="translate(244.8125,756.25)"/>
<path d="M0 0 C2.0546875 0.9765625 2.0546875 0.9765625 5.3046875 3.2265625 C6.1709375 3.7628125 7.0371875 4.2990625 7.9296875 4.8515625 C13.67892286 10.60079786 17.41548667 17.64671863 17.6171875 25.7890625 C17.54243231 33.51688056 15.33891356 39.14616304 11.1171875 45.5390625 C3.41475067 52.89916881 -4.53578111 54.69762813 -14.94921875 54.51171875 C-19.73869757 54.14713903 -22.83277875 52.98827413 -26.6953125 50.2265625 C-27.5615625 49.6903125 -28.4278125 49.1540625 -29.3203125 48.6015625 C-35.26453061 42.65734439 -38.8106397 35.54350386 -39.0703125 27.1640625 C-39.0249933 20.38884191 -37.33024004 15.8644093 -33.6953125 10.2265625 C-33.1384375 9.3190625 -32.5815625 8.4115625 -32.0078125 7.4765625 C-22.98985657 -1.29766489 -12.13350079 -3.48178718 0 0 Z " fill="#2F1854" transform="translate(663.6953125,462.7734375)"/>
<path d="M0 0 C6.08544955 3.3098342 11.41847445 8.51109737 14.2734375 14.87890625 C16.27724068 22.59944201 16.24065392 31.68827285 12.9375 39 C9.39540538 44.9435147 3.78956883 50.58276045 -2.828125 52.99609375 C-11.53448461 54.7160564 -20.22886066 54.54814506 -27.9765625 49.9921875 C-34.18099268 45.36791182 -38.50075289 39.0818411 -40.0625 31.4375 C-40.90221954 21.92526721 -39.58379686 14.68663779 -33.625 7.125 C-24.83808055 -2.09054967 -12.10979014 -4.87319707 0 0 Z " fill="#321A59" transform="translate(762.0625,463.5625)"/>
<path d="M0 0 C6.98883612 5.42603734 11.04058398 11.67385065 12.375 20.47265625 C12.7836448 28.53062097 10.27787717 36.45390235 5.375 42.875 C-0.7223758 49.13839345 -7.38273562 51.48907978 -16.0625 51.625 C-24.05937164 51.49037253 -29.19125058 49.57678236 -34.98828125 44.1328125 C-41.44148567 37.26542726 -44.45214249 29.67898037 -44.2734375 20.171875 C-43.22105449 11.81294711 -37.70064066 4.86323437 -31.35546875 -0.3515625 C-22.57326587 -6.53245465 -8.74124446 -5.96223611 0 0 Z " fill="#341C5B" transform="translate(862,466)"/>
<path d="M0 0 C3.74548898 0.62424816 4.70367707 1.51270483 7 4.5 C7.45410156 7.61621094 7.45410156 7.61621094 7.390625 11.234375 C7.37773437 12.52988281 7.36484375 13.82539063 7.3515625 15.16015625 C7.31814366 16.52344824 7.28428391 17.88672949 7.25 19.25 C7.22992707 20.62888064 7.21167767 22.00778912 7.1953125 23.38671875 C7.14815448 26.75851744 7.08234538 30.12890687 7 33.5 C8.20329956 33.4685791 8.20329956 33.4685791 9.4309082 33.43652344 C13.05797848 33.35348684 16.68484906 33.30137796 20.3125 33.25 C21.57513672 33.21648437 22.83777344 33.18296875 24.13867188 33.1484375 C25.34716797 33.13554687 26.55566406 33.12265625 27.80078125 33.109375 C29.47394409 33.0779541 29.47394409 33.0779541 31.1809082 33.04589844 C34 33.5 34 33.5 35.86010742 35.33300781 C37.4125089 38.28419982 37.48916384 40.21561422 37 43.5 C34.73598723 45.7885049 33.3749709 46.45504603 30.15917969 46.84057617 C29.09086914 46.82486572 28.02255859 46.80915527 26.921875 46.79296875 C25.76171875 46.78330078 24.6015625 46.77363281 23.40625 46.76367188 C22.1996875 46.73853516 20.993125 46.71339844 19.75 46.6875 C17.91695313 46.66719727 17.91695313 46.66719727 16.046875 46.64648438 C13.03080502 46.6111398 10.01562513 46.5617956 7 46.5 C7.02618408 47.32201904 7.05236816 48.14403809 7.0793457 48.9909668 C7.1834144 52.72294938 7.24836128 56.4546266 7.3125 60.1875 C7.35439453 61.48107422 7.39628906 62.77464844 7.43945312 64.10742188 C7.45556641 65.35458984 7.47167969 66.60175781 7.48828125 67.88671875 C7.51446533 69.03358154 7.54064941 70.18044434 7.56762695 71.36206055 C6.8260127 75.46183173 5.19509197 76.92191586 2 79.5 C-0.5625 80.0625 -0.5625 80.0625 -3 79.5 C-6.02101916 77.22765011 -6.91736925 76.08374625 -7.45410156 72.29199219 C-7.4331543 71.05610352 -7.41220703 69.82021484 -7.390625 68.546875 C-7.38496521 67.88665344 -7.37930542 67.22643188 -7.37347412 66.54620361 C-7.3511623 64.44671737 -7.30098314 62.3489663 -7.25 60.25 C-7.22992794 58.8229414 -7.21167839 57.39585592 -7.1953125 55.96875 C-7.15131693 52.47860707 -7.08232876 48.98947301 -7 45.5 C-7.83249268 45.52094727 -8.66498535 45.54189453 -9.52270508 45.56347656 C-12.61446034 45.63168816 -15.70583197 45.68181724 -18.7980957 45.71972656 C-20.79339014 45.74971281 -22.78833582 45.80053786 -24.78320312 45.8515625 C-26.03681641 45.86445313 -27.29042969 45.87734375 -28.58203125 45.890625 C-29.73936768 45.91157227 -30.8967041 45.93251953 -32.08911133 45.95410156 C-35 45.5 -35 45.5 -36.90893555 43.70214844 C-38.56168142 40.36633108 -37.91354362 38.02366826 -37 34.5 C-33.45986775 32.13991183 -31.98878045 32.26536356 -27.80078125 32.3046875 C-26.59228516 32.31113281 -25.38378906 32.31757813 -24.13867188 32.32421875 C-22.2447168 32.34935547 -22.2447168 32.34935547 -20.3125 32.375 C-19.03826172 32.38402344 -17.76402344 32.39304687 -16.45117188 32.40234375 C-13.30059373 32.42594359 -10.15039017 32.45886806 -7 32.5 C-7.02094727 31.67274414 -7.04189453 30.84548828 -7.06347656 29.99316406 C-7.14661619 26.2455663 -7.19865531 22.49816251 -7.25 18.75 C-7.30027344 16.79707031 -7.30027344 16.79707031 -7.3515625 14.8046875 C-7.36445313 13.55429687 -7.37734375 12.30390625 -7.390625 11.015625 C-7.41157227 9.86352539 -7.43251953 8.71142578 -7.45410156 7.52441406 C-6.74523966 2.80324137 -4.6726028 0.77876713 0 0 Z " fill="#241446" transform="translate(361,462.5)"/>
<path d="M0 0 C1.6652832 1.0949707 1.6652832 1.0949707 3 3 C3.34057617 6.09448242 3.34057617 6.09448242 3.29296875 9.85546875 C3.28872391 10.51710526 3.28447906 11.17874176 3.28010559 11.86042786 C3.26333693 13.9698691 3.22569099 16.07834846 3.1875 18.1875 C3.17245068 19.61912681 3.1587627 21.05076862 3.14648438 22.48242188 C3.1134403 25.98859288 3.06167167 29.49420254 3 33 C3.83249268 32.98428955 4.66498535 32.9685791 5.52270508 32.95239258 C8.61447856 32.90123358 11.70603618 32.8636352 14.7980957 32.83520508 C16.79327701 32.81271667 18.78826213 32.77459802 20.78320312 32.73632812 C22.03681641 32.72666016 23.29042969 32.71699219 24.58203125 32.70703125 C25.73936768 32.6913208 26.8967041 32.67561035 28.08911133 32.65942383 C31 33 31 33 32.87768555 34.29956055 C34.7679708 37.1635668 34.35493559 39.68726778 34 43 C32.87768555 44.70043945 32.87768555 44.70043945 31 46 C28.08911133 46.34057617 28.08911133 46.34057617 24.58203125 46.29296875 C23.32841797 46.28330078 22.07480469 46.27363281 20.78320312 46.26367188 C19.47287109 46.23853516 18.16253906 46.21339844 16.8125 46.1875 C15.47722837 46.17244967 14.14194063 46.15876187 12.80664062 46.14648438 C9.53735424 46.11107694 6.26887907 46.0616889 3 46 C3.02094727 46.85754883 3.04189453 47.71509766 3.06347656 48.59863281 C3.13176527 51.78918472 3.18185513 54.97936346 3.21972656 58.17041016 C3.23980642 59.5497668 3.26707666 60.92903869 3.30175781 62.30810547 C3.35042817 64.29356979 3.37086418 66.27966254 3.390625 68.265625 C3.41157227 69.45961914 3.43251953 70.65361328 3.45410156 71.88378906 C2.91086527 75.61167514 1.96861122 76.75756303 -1 79 C-3.5 79.5 -3.5 79.5 -6 79 C-8.96861122 76.75756303 -9.91086527 75.61167514 -10.45410156 71.88378906 C-10.42268066 70.09279785 -10.42268066 70.09279785 -10.390625 68.265625 C-10.37773438 66.97011719 -10.36484375 65.67460937 -10.3515625 64.33984375 C-10.31814366 62.97655176 -10.28428391 61.61327051 -10.25 60.25 C-10.22992707 58.87111936 -10.21167767 57.49221088 -10.1953125 56.11328125 C-10.14815448 52.74148256 -10.08234538 49.37109313 -10 46 C-10.79696289 46.02094727 -11.59392578 46.04189453 -12.41503906 46.06347656 C-16.02656434 46.14663322 -19.63788824 46.19866034 -23.25 46.25 C-25.13138672 46.30027344 -25.13138672 46.30027344 -27.05078125 46.3515625 C-28.85869141 46.37089844 -28.85869141 46.37089844 -30.703125 46.390625 C-32.36843262 46.4220459 -32.36843262 46.4220459 -34.06738281 46.45410156 C-37 46 -37 46 -39.39746094 44.20214844 C-41 42 -41 42 -40.9375 38.375 C-40 35 -40 35 -37 33 C-34.1809082 32.77294922 -34.1809082 32.77294922 -30.80078125 32.8046875 C-29.59228516 32.81113281 -28.38378906 32.81757813 -27.13867188 32.82421875 C-25.2447168 32.84935547 -25.2447168 32.84935547 -23.3125 32.875 C-22.03826172 32.88402344 -20.76402344 32.89304688 -19.45117188 32.90234375 C-16.30059373 32.92594359 -13.15039017 32.95886806 -10 33 C-10.02094727 32.10692139 -10.04189453 31.21384277 -10.06347656 30.29370117 C-10.13167346 26.97816657 -10.18180815 23.66337761 -10.21972656 20.34741211 C-10.23983525 18.91272214 -10.26712673 17.47811407 -10.30175781 16.04370117 C-10.3503146 13.98075161 -10.37297406 11.91888569 -10.390625 9.85546875 C-10.41157227 8.61434326 -10.43251953 7.37321777 -10.45410156 6.09448242 C-10 3 -10 3 -8.16699219 1.0949707 C-5.24174184 -0.38314419 -3.2335217 -0.41279 0 0 Z " fill="#2B184F" transform="translate(909,175)"/>
</svg>
